<?xml version="1.0" encoding="utf-8"?>
<!-- Generator: Adobe Illustrator 24.1.3, SVG Export Plug-In . SVG Version: 6.00 Build 0)  -->
<svg version="1.2" baseProfile="tiny" id="Capa_1" xmlns="http://www.w3.org/2000/svg" xmlns:xlink="http://www.w3.org/1999/xlink"
	 x="0px" y="0px" viewBox="0 0 283.46 283.46" overflow="visible" xml:space="preserve">
<circle fill="#EA5B0C" cx="141.73" cy="141.73" r="136.31"/>
<g>
	<path fill="#FFFFFF" d="M29.76,135.63c16.35,0,18.65-8.98,18.65-17.04c0-6.45-0.92-12.9-1.84-19.35
		c-0.92-6.45-1.84-12.67-1.84-19.12c0-21.19,13.82-30.17,33.39-30.17h4.84v12.67h-4.15c-13.59,0-18.19,7.37-18.19,19.81
		c0,5.3,0.69,10.82,1.61,16.35c0.92,5.76,1.61,11.28,1.61,17.5c0.23,14.74-6.22,22.11-16.58,24.87v0.46
		c10.36,2.53,16.81,10.36,16.58,25.1c0,6.22-0.69,11.98-1.61,17.5c-0.92,5.76-1.61,11.05-1.61,16.58c0,12.9,5.3,20.04,18.19,20.04
		h4.15v12.67h-4.84c-19.11,0-33.39-8.29-33.39-31.55c0-6.22,0.92-12.67,1.84-18.88c0.92-6.22,1.84-12.44,1.84-18.65
		c0-7.14-2.3-17.04-18.65-17.04V135.63z"/>
	<path fill="#FFFFFF" d="M253.71,147.37c-16.35,0-18.65,9.9-18.65,17.04c0,6.22,0.92,12.44,1.84,18.65
		c0.92,6.22,1.84,12.67,1.84,18.88c0,23.26-14.51,31.55-33.39,31.55h-4.84v-12.67h3.92c12.9-0.23,18.42-7.14,18.42-20.04
		c0-5.53-0.92-10.82-1.61-16.58c-0.92-5.53-1.84-11.29-1.84-17.5c0-14.74,6.45-22.57,16.58-25.1v-0.46
		c-10.13-2.76-16.58-10.13-16.58-24.87c0-6.22,0.92-11.75,1.84-17.5c0.69-5.53,1.61-11.05,1.61-16.35
		c0-12.44-4.84-19.58-18.19-19.81h-4.15V49.96h4.61c19.58,0,33.62,8.98,33.62,30.17c0,6.45-0.92,12.67-1.84,19.12
		c-0.92,6.45-1.84,12.9-1.84,19.35c0,8.06,2.3,17.04,18.65,17.04V147.37z"/>
</g>
<g>
	<path fill="#FFFFFF" d="M173.13,114.92c-0.9-19.97-17.45-26.27-32.03-26.27c-10.98,0-29.51,3.06-29.51,22.67
		c0,10.98,7.74,14.57,15.29,16.37l36.89,8.46c16.73,3.96,29.33,14.04,29.33,34.55c0,30.59-28.43,39.05-50.56,39.05
		c-23.93,0-33.29-7.2-39.04-12.42c-10.98-9.9-13.13-20.69-13.13-32.75h16.37c0,23.39,19.07,30.23,35.63,30.23
		c12.59,0,33.83-3.24,33.83-21.77c0-13.5-6.3-17.81-27.53-22.85l-26.45-6.12c-8.46-1.98-27.53-7.92-27.53-30.41
		c0-20.15,13.13-39.94,44.44-39.94c45.16,0,49.66,26.99,50.38,41.2H173.13z"/>
</g>
</svg>
